<svg xmlns="http://www.w3.org/2000/svg" xmlns:xlink="http://www.w3.org/1999/xlink" width="278" zoomAndPan="magnify" viewBox="0 0 208.5 44.999999" height="60" preserveAspectRatio="xMidYMid meet" version="1.0"><defs><g/><clipPath id="id1"><path d="M 8.8125 13.398438 L 50.660156 13.398438 L 50.660156 31.398438 L 8.8125 31.398438 Z M 8.8125 13.398438 " clip-rule="nonzero"/></clipPath></defs><g clip-path="url(#id1)"><path fill="#000000" d="M 37.542969 24.449219 C 35.6875 23.472656 33.828125 22.492188 31.96875 21.515625 L 43.117188 21.515625 C 41.660156 22.28125 40.203125 23.046875 38.746094 23.816406 C 38.644531 23.835938 38.5625 23.882812 38.5 23.945312 C 38.179688 24.113281 37.863281 24.28125 37.542969 24.449219 Z M 31.890625 22.957031 C 30.839844 23.0625 29.894531 23.386719 28.882812 23.644531 C 27.707031 23.945312 26.480469 24.003906 25.269531 23.878906 C 25.6875 23.65625 26.105469 23.4375 26.519531 23.21875 C 27.550781 22.675781 28.582031 22.136719 29.609375 21.59375 C 30.460938 22.042969 31.308594 22.488281 32.160156 22.9375 C 32.070312 22.945312 31.980469 22.949219 31.890625 22.957031 Z M 21.675781 24.449219 C 20.792969 23.984375 19.914062 23.523438 19.035156 23.058594 C 18.96875 22.988281 18.878906 22.9375 18.765625 22.917969 C 17.875 22.449219 16.988281 21.984375 16.101562 21.515625 L 27.246094 21.515625 C 25.390625 22.492188 23.53125 23.472656 21.675781 24.449219 Z M 15.003906 14.789062 C 18.058594 13.957031 21.199219 15.464844 22.597656 18.210938 C 22.941406 18.878906 23.964844 18.289062 23.625 17.621094 C 23.230469 16.847656 22.710938 16.164062 22.105469 15.582031 C 25.367188 13.527344 29.75 14.777344 31.5 18.210938 C 31.839844 18.878906 32.863281 18.289062 32.523438 17.621094 C 32.121094 16.832031 31.605469 16.152344 31.007812 15.582031 C 34.273438 13.527344 38.652344 14.777344 40.402344 18.210938 C 40.742188 18.878906 41.765625 18.289062 41.425781 17.621094 C 40.964844 16.71875 40.355469 15.957031 39.644531 15.339844 C 41.664062 14.300781 44.089844 14.292969 46.089844 15.476562 C 47.867188 16.53125 48.976562 18.351562 49.183594 20.351562 L 10.273438 20.351562 C 10.546875 17.75 12.378906 15.496094 15.003906 14.789062 Z M 50.238281 23.441406 C 48.871094 23.082031 47.386719 22.945312 45.972656 22.996094 C 44.816406 23.035156 43.753906 23.304688 42.640625 23.582031 C 42.191406 23.691406 41.734375 23.761719 41.277344 23.804688 C 41.648438 23.609375 42.019531 23.414062 42.390625 23.21875 C 43.46875 22.652344 44.546875 22.082031 45.628906 21.515625 L 49.816406 21.515625 C 50.132812 21.515625 50.414062 21.25 50.40625 20.933594 C 50.371094 18.296875 48.996094 15.84375 46.6875 14.472656 C 44.203125 12.996094 41.042969 13.082031 38.605469 14.582031 C 36.0625 13.046875 32.703125 13.039062 30.066406 14.816406 C 27.492188 13.050781 23.933594 12.953125 21.167969 14.816406 C 19.332031 13.539062 16.964844 13.046875 14.6875 13.664062 C 11.363281 14.5625 9.101562 17.578125 9.050781 20.933594 C 9.046875 21.25 9.328125 21.515625 9.644531 21.515625 L 13.59375 21.515625 C 14.671875 22.085938 15.75 22.652344 16.832031 23.21875 C 15.441406 23.550781 14.089844 23.996094 12.613281 23.960938 C 11.582031 23.933594 10.511719 23.785156 9.535156 23.441406 C 8.816406 23.1875 8.503906 24.3125 9.21875 24.566406 C 10.21875 24.917969 11.324219 25.066406 12.378906 25.117188 C 13.328125 25.160156 14.292969 25.082031 15.222656 24.878906 C 16.332031 24.636719 17.34375 24.214844 18.480469 24.089844 C 19.167969 24.449219 19.855469 24.8125 20.542969 25.171875 C 20.8125 25.316406 21.089844 25.5 21.375 25.609375 C 21.800781 25.777344 22.105469 25.542969 22.46875 25.351562 C 22.835938 25.15625 23.203125 24.964844 23.570312 24.773438 C 25.144531 25.125 26.78125 25.203125 28.378906 24.9375 C 29.511719 24.753906 30.5625 24.289062 31.707031 24.144531 C 32.632812 24.03125 33.570312 24.058594 34.496094 24.164062 C 35.132812 24.5 35.773438 24.835938 36.410156 25.171875 C 36.683594 25.316406 36.957031 25.5 37.246094 25.609375 C 37.671875 25.777344 37.976562 25.542969 38.339844 25.351562 C 38.578125 25.226562 38.8125 25.101562 39.050781 24.976562 C 40.105469 25.046875 41.15625 25.023438 42.199219 24.855469 C 43.398438 24.664062 44.507812 24.238281 45.734375 24.167969 C 47.125 24.09375 48.574219 24.210938 49.925781 24.566406 C 50.664062 24.757812 50.980469 23.632812 50.238281 23.441406 Z M 45.882812 30.230469 C 45.277344 30.234375 44.671875 30.230469 44.070312 30.230469 L 16.15625 30.230469 C 15.339844 30.230469 14.519531 30.230469 13.703125 30.230469 C 12.03125 30.222656 10.621094 29.230469 10.304688 27.65625 L 49.152344 27.65625 C 48.84375 29.167969 47.507812 30.214844 45.882812 30.230469 Z M 49.816406 26.488281 L 9.644531 26.488281 C 9.492188 26.488281 9.371094 26.539062 9.277344 26.613281 C 9.140625 26.707031 9.046875 26.855469 9.050781 27.070312 C 9.117188 29.460938 11.023438 31.339844 13.457031 31.394531 C 13.9375 31.402344 14.417969 31.394531 14.898438 31.394531 L 43.839844 31.394531 C 44.546875 31.394531 45.253906 31.40625 45.960938 31.394531 C 48.414062 31.34375 50.34375 29.488281 50.40625 27.070312 C 50.417969 26.757812 50.128906 26.488281 49.816406 26.488281 " fill-opacity="1" fill-rule="nonzero"/></g><g fill="#ffffff" fill-opacity="1"><g transform="translate(57.865724, 25.898232)"><g><path d="M 11.609375 -12.953125 L 8.046875 -12.953125 L 8.046875 -15.96875 C 8.046875 -16.289062 7.984375 -16.507812 7.859375 -16.625 C 7.734375 -16.738281 7.507812 -16.796875 7.1875 -16.796875 L 5.734375 -16.796875 C 5.410156 -16.796875 5.1875 -16.738281 5.0625 -16.625 C 4.9375 -16.507812 4.875 -16.289062 4.875 -15.96875 L 4.875 -3.375 C 4.875 -3.050781 4.9375 -2.832031 5.0625 -2.71875 C 5.1875 -2.601562 5.410156 -2.546875 5.734375 -2.546875 L 7.1875 -2.546875 C 7.507812 -2.546875 7.734375 -2.601562 7.859375 -2.71875 C 7.984375 -2.832031 8.046875 -3.050781 8.046875 -3.375 L 8.046875 -6.328125 L 11.609375 -6.328125 L 11.609375 -3.015625 C 11.609375 -0.984375 10.492188 0.03125 8.265625 0.03125 L 4.671875 0.03125 C 2.429688 0.03125 1.3125 -0.984375 1.3125 -3.015625 L 1.3125 -16.328125 C 1.3125 -18.359375 2.429688 -19.375 4.671875 -19.375 L 8.265625 -19.375 C 10.492188 -19.375 11.609375 -18.359375 11.609375 -16.328125 Z M 11.609375 -12.953125 "/></g></g></g><g fill="#ffffff" fill-opacity="1"><g transform="translate(70.486273, 25.898232)"><g><path d="M 7.453125 -15.078125 L 10.96875 -15.078125 L 10.96875 0 L 7.515625 0 L 7.515625 -1.5 C 7.273438 -0.5 6.550781 0 5.34375 0 L 4.390625 0 C 2.304688 0 1.265625 -1.015625 1.265625 -3.046875 L 1.265625 -15.078125 L 4.734375 -15.078125 L 4.734375 -3.53125 C 4.734375 -3.207031 4.789062 -2.988281 4.90625 -2.875 C 5.03125 -2.757812 5.257812 -2.703125 5.59375 -2.703125 L 6.515625 -2.703125 C 7.140625 -2.703125 7.453125 -3.039062 7.453125 -3.71875 Z M 7.453125 -15.078125 "/></g></g></g><g fill="#ffffff" fill-opacity="1"><g transform="translate(82.738343, 25.898232)"><g><path d="M 6.78125 -3.3125 L 6.78125 -5.4375 C 6.78125 -5.757812 6.71875 -5.976562 6.59375 -6.09375 C 6.476562 -6.207031 6.242188 -6.265625 5.890625 -6.265625 L 4.234375 -6.265625 C 2.046875 -6.265625 0.953125 -7.265625 0.953125 -9.265625 L 0.953125 -12.03125 C 0.953125 -14.0625 2.066406 -15.078125 4.296875 -15.078125 L 6.71875 -15.078125 C 8.9375 -15.078125 10.046875 -14.0625 10.046875 -12.03125 L 10.046875 -10.625 L 6.6875 -10.625 L 6.6875 -11.765625 C 6.6875 -12.085938 6.625 -12.304688 6.5 -12.421875 C 6.382812 -12.535156 6.160156 -12.59375 5.828125 -12.59375 L 5.21875 -12.59375 C 4.875 -12.59375 4.640625 -12.535156 4.515625 -12.421875 C 4.390625 -12.304688 4.328125 -12.085938 4.328125 -11.765625 L 4.328125 -9.546875 C 4.328125 -9.222656 4.390625 -9.003906 4.515625 -8.890625 C 4.640625 -8.773438 4.875 -8.71875 5.21875 -8.71875 L 6.875 -8.71875 C 9.082031 -8.71875 10.1875 -7.710938 10.1875 -5.703125 L 10.1875 -3.046875 C 10.1875 -1.015625 9.070312 0 6.84375 0 L 4.359375 0 C 2.128906 0 1.015625 -1.015625 1.015625 -3.046875 L 1.015625 -4.421875 L 4.421875 -4.421875 L 4.421875 -3.3125 C 4.421875 -2.988281 4.484375 -2.769531 4.609375 -2.65625 C 4.734375 -2.539062 4.957031 -2.484375 5.28125 -2.484375 L 5.890625 -2.484375 C 6.242188 -2.484375 6.476562 -2.539062 6.59375 -2.65625 C 6.71875 -2.769531 6.78125 -2.988281 6.78125 -3.3125 Z M 6.78125 -3.3125 "/></g></g></g><g fill="#ffffff" fill-opacity="1"><g transform="translate(93.854258, 25.898232)"><g><path d="M 7.1875 -12.375 L 5.125 -12.375 L 5.125 -3.625 C 5.125 -3.289062 5.1875 -3.066406 5.3125 -2.953125 C 5.4375 -2.847656 5.671875 -2.796875 6.015625 -2.796875 L 7.15625 -2.796875 L 7.15625 0 L 5 0 C 2.769531 0 1.65625 -1.015625 1.65625 -3.046875 L 1.65625 -12.375 L 0.15625 -12.375 L 0.15625 -15.078125 L 1.65625 -15.078125 L 1.65625 -17.78125 L 5.125 -17.78125 L 5.125 -15.078125 L 7.1875 -15.078125 Z M 7.1875 -12.375 "/></g></g></g><g fill="#ffffff" fill-opacity="1"><g transform="translate(101.346754, 25.898232)"><g><path d="M 4.453125 -15.078125 L 7.921875 -15.078125 C 10.085938 -15.078125 11.171875 -14.0625 11.171875 -12.03125 L 11.171875 -3.046875 C 11.171875 -1.015625 10.085938 0 7.921875 0 L 4.453125 0 C 2.265625 0 1.171875 -1.015625 1.171875 -3.046875 L 1.171875 -12.03125 C 1.171875 -14.0625 2.265625 -15.078125 4.453125 -15.078125 Z M 7.765625 -3.4375 L 7.765625 -11.640625 C 7.765625 -11.960938 7.703125 -12.179688 7.578125 -12.296875 C 7.460938 -12.410156 7.226562 -12.46875 6.875 -12.46875 L 5.46875 -12.46875 C 5.113281 -12.46875 4.875 -12.410156 4.75 -12.296875 C 4.632812 -12.179688 4.578125 -11.960938 4.578125 -11.640625 L 4.578125 -3.4375 C 4.578125 -3.113281 4.632812 -2.894531 4.75 -2.78125 C 4.875 -2.664062 5.113281 -2.609375 5.46875 -2.609375 L 6.875 -2.609375 C 7.226562 -2.609375 7.460938 -2.664062 7.578125 -2.78125 C 7.703125 -2.894531 7.765625 -3.113281 7.765625 -3.4375 Z M 7.765625 -3.4375 "/></g></g></g><g fill="#ffffff" fill-opacity="1"><g transform="translate(113.69094, 25.898232)"><g><path d="M 13.140625 -15.078125 L 14.09375 -15.078125 C 16.175781 -15.078125 17.21875 -14.0625 17.21875 -12.03125 L 17.21875 0 L 13.75 0 L 13.75 -11.546875 C 13.75 -11.867188 13.6875 -12.085938 13.5625 -12.203125 C 13.445312 -12.316406 13.222656 -12.375 12.890625 -12.375 L 11.96875 -12.375 C 11.332031 -12.375 11.015625 -12.035156 11.015625 -11.359375 L 11.015625 0 L 7.515625 0 L 7.515625 -11.546875 C 7.515625 -11.867188 7.453125 -12.085938 7.328125 -12.203125 C 7.210938 -12.316406 6.988281 -12.375 6.65625 -12.375 L 5.734375 -12.375 C 5.109375 -12.375 4.796875 -12.035156 4.796875 -11.359375 L 4.796875 0 L 1.3125 0 L 1.3125 -15.078125 L 4.765625 -15.078125 L 4.765625 -13.6875 C 5.046875 -14.613281 5.769531 -15.078125 6.9375 -15.078125 L 7.859375 -15.078125 C 9.367188 -15.078125 10.332031 -14.566406 10.75 -13.546875 C 11.03125 -14.566406 11.828125 -15.078125 13.140625 -15.078125 Z M 13.140625 -15.078125 "/></g></g></g><g fill="#ffffff" fill-opacity="1"><g transform="translate(132.084398, 25.898232)"><g><path d="M 5.03125 -2.703125 L 10.9375 -2.703125 L 10.9375 0 L 1.46875 0 L 1.46875 -19.375 L 10.6875 -19.375 L 10.6875 -16.671875 L 5.03125 -16.671875 L 5.03125 -11.296875 L 9.796875 -11.296875 L 9.796875 -8.5625 L 5.03125 -8.5625 Z M 5.03125 -2.703125 "/></g></g></g><g fill="#ffffff" fill-opacity="1"><g transform="translate(143.568791, 25.898232)"><g><path d="M 7.375 -15.078125 L 10.8125 -15.078125 L 10.8125 0 L 7.3125 0 L 7.3125 -1.296875 C 7 -0.429688 6.289062 0 5.1875 0 L 4.234375 0 C 2.148438 0 1.109375 -1.015625 1.109375 -3.046875 L 1.109375 -12.03125 C 1.109375 -14.0625 2.148438 -15.078125 4.234375 -15.078125 L 5.1875 -15.078125 C 6.394531 -15.078125 7.125 -14.582031 7.375 -13.59375 Z M 5.4375 -2.703125 L 6.359375 -2.703125 C 6.992188 -2.703125 7.3125 -3.039062 7.3125 -3.71875 L 7.3125 -11.359375 C 7.3125 -12.035156 6.992188 -12.375 6.359375 -12.375 L 5.4375 -12.375 C 5.101562 -12.375 4.875 -12.316406 4.75 -12.203125 C 4.632812 -12.085938 4.578125 -11.867188 4.578125 -11.546875 L 4.578125 -3.53125 C 4.578125 -3.207031 4.632812 -2.988281 4.75 -2.875 C 4.875 -2.757812 5.101562 -2.703125 5.4375 -2.703125 Z M 5.4375 -2.703125 "/></g></g></g><g fill="#ffffff" fill-opacity="1"><g transform="translate(155.66732, 25.898232)"><g><path d="M 7.1875 -12.375 L 5.125 -12.375 L 5.125 -3.625 C 5.125 -3.289062 5.1875 -3.066406 5.3125 -2.953125 C 5.4375 -2.847656 5.671875 -2.796875 6.015625 -2.796875 L 7.15625 -2.796875 L 7.15625 0 L 5 0 C 2.769531 0 1.65625 -1.015625 1.65625 -3.046875 L 1.65625 -12.375 L 0.15625 -12.375 L 0.15625 -15.078125 L 1.65625 -15.078125 L 1.65625 -17.78125 L 5.125 -17.78125 L 5.125 -15.078125 L 7.1875 -15.078125 Z M 7.1875 -12.375 "/></g></g></g><g fill="#ffffff" fill-opacity="1"><g transform="translate(163.159815, 25.898232)"><g><path d="M 6.78125 -3.3125 L 6.78125 -5.4375 C 6.78125 -5.757812 6.71875 -5.976562 6.59375 -6.09375 C 6.476562 -6.207031 6.242188 -6.265625 5.890625 -6.265625 L 4.234375 -6.265625 C 2.046875 -6.265625 0.953125 -7.265625 0.953125 -9.265625 L 0.953125 -12.03125 C 0.953125 -14.0625 2.066406 -15.078125 4.296875 -15.078125 L 6.71875 -15.078125 C 8.9375 -15.078125 10.046875 -14.0625 10.046875 -12.03125 L 10.046875 -10.625 L 6.6875 -10.625 L 6.6875 -11.765625 C 6.6875 -12.085938 6.625 -12.304688 6.5 -12.421875 C 6.382812 -12.535156 6.160156 -12.59375 5.828125 -12.59375 L 5.21875 -12.59375 C 4.875 -12.59375 4.640625 -12.535156 4.515625 -12.421875 C 4.390625 -12.304688 4.328125 -12.085938 4.328125 -11.765625 L 4.328125 -9.546875 C 4.328125 -9.222656 4.390625 -9.003906 4.515625 -8.890625 C 4.640625 -8.773438 4.875 -8.71875 5.21875 -8.71875 L 6.875 -8.71875 C 9.082031 -8.71875 10.1875 -7.710938 10.1875 -5.703125 L 10.1875 -3.046875 C 10.1875 -1.015625 9.070312 0 6.84375 0 L 4.359375 0 C 2.128906 0 1.015625 -1.015625 1.015625 -3.046875 L 1.015625 -4.421875 L 4.421875 -4.421875 L 4.421875 -3.3125 C 4.421875 -2.988281 4.484375 -2.769531 4.609375 -2.65625 C 4.734375 -2.539062 4.957031 -2.484375 5.28125 -2.484375 L 5.890625 -2.484375 C 6.242188 -2.484375 6.476562 -2.539062 6.59375 -2.65625 C 6.71875 -2.769531 6.78125 -2.988281 6.78125 -3.3125 Z M 6.78125 -3.3125 "/></g></g></g><g fill="#000000" fill-opacity="1"><g transform="translate(59.219601, 40.469558)"><g><path d="M 3.578125 -1.484375 L 3.578125 -4.28125 C 3.578125 -4.5 3.546875 -4.632812 3.484375 -4.6875 C 3.421875 -4.75 3.285156 -4.78125 3.078125 -4.78125 L 1.953125 -4.78125 C 1.085938 -4.78125 0.65625 -5.210938 0.65625 -6.078125 L 0.65625 -8.921875 C 0.65625 -9.785156 1.085938 -10.21875 1.953125 -10.21875 L 3.40625 -10.21875 C 4.269531 -10.21875 4.703125 -9.785156 4.703125 -8.921875 L 4.703125 -7.34375 L 3.5625 -7.34375 L 3.5625 -8.75 C 3.5625 -8.96875 3.53125 -9.101562 3.46875 -9.15625 C 3.414062 -9.21875 3.28125 -9.25 3.0625 -9.25 L 2.296875 -9.25 C 2.078125 -9.25 1.9375 -9.21875 1.875 -9.15625 C 1.820312 -9.101562 1.796875 -8.96875 1.796875 -8.75 L 1.796875 -6.265625 C 1.796875 -6.054688 1.820312 -5.914062 1.875 -5.84375 C 1.9375 -5.78125 2.078125 -5.75 2.296875 -5.75 L 3.421875 -5.75 C 4.285156 -5.75 4.71875 -5.316406 4.71875 -4.453125 L 4.71875 -1.296875 C 4.71875 -0.429688 4.285156 0 3.421875 0 L 1.984375 0 C 1.117188 0 0.6875 -0.429688 0.6875 -1.296875 L 0.6875 -2.875 L 1.828125 -2.875 L 1.828125 -1.484375 C 1.828125 -1.265625 1.851562 -1.125 1.90625 -1.0625 C 1.96875 -1 2.109375 -0.96875 2.328125 -0.96875 L 3.078125 -0.96875 C 3.285156 -0.96875 3.421875 -1 3.484375 -1.0625 C 3.546875 -1.125 3.578125 -1.265625 3.578125 -1.484375 Z M 3.578125 -1.484375 "/></g></g></g><g fill="#000000" fill-opacity="1"><g transform="translate(64.595253, 40.469558)"><g><path d="M 3.515625 -7.96875 L 4.65625 -7.96875 L 4.65625 0 L 3.515625 0 L 3.515625 -0.546875 C 3.398438 -0.179688 3.097656 0 2.609375 0 L 1.953125 0 C 1.085938 0 0.65625 -0.429688 0.65625 -1.296875 L 0.65625 -6.671875 C 0.65625 -7.535156 1.085938 -7.96875 1.953125 -7.96875 L 2.609375 -7.96875 C 3.097656 -7.96875 3.398438 -7.789062 3.515625 -7.4375 Z M 2.296875 -0.96875 L 2.953125 -0.96875 C 3.148438 -0.96875 3.289062 -1.007812 3.375 -1.09375 C 3.46875 -1.1875 3.515625 -1.34375 3.515625 -1.5625 L 3.515625 -6.40625 C 3.515625 -6.625 3.46875 -6.773438 3.375 -6.859375 C 3.289062 -6.953125 3.148438 -7 2.953125 -7 L 2.296875 -7 C 2.078125 -7 1.9375 -6.96875 1.875 -6.90625 C 1.820312 -6.84375 1.796875 -6.707031 1.796875 -6.5 L 1.796875 -1.484375 C 1.796875 -1.265625 1.820312 -1.125 1.875 -1.0625 C 1.9375 -1 2.078125 -0.96875 2.296875 -0.96875 Z M 2.296875 -0.96875 "/></g></g></g><g fill="#000000" fill-opacity="1"><g transform="translate(69.98735, 40.469558)"><g><path d="M 2.78125 -7.96875 L 3.4375 -7.96875 C 4.300781 -7.96875 4.734375 -7.535156 4.734375 -6.671875 L 4.734375 0 L 3.59375 0 L 3.59375 -6.5 C 3.59375 -6.707031 3.5625 -6.84375 3.5 -6.90625 C 3.445312 -6.96875 3.3125 -7 3.09375 -7 L 2.4375 -7 C 2.238281 -7 2.09375 -6.953125 2 -6.859375 C 1.914062 -6.773438 1.875 -6.625 1.875 -6.40625 L 1.875 0 L 0.734375 0 L 0.734375 -7.96875 L 1.875 -7.96875 L 1.875 -7.4375 C 2 -7.789062 2.300781 -7.96875 2.78125 -7.96875 Z M 2.78125 -7.96875 "/></g></g></g><g fill="#000000" fill-opacity="1"><g transform="translate(75.461643, 40.469558)"><g><path d="M 3.515625 -11 L 4.65625 -11 L 4.65625 0 L 3.515625 0 L 3.515625 -0.546875 C 3.398438 -0.179688 3.097656 0 2.609375 0 L 1.953125 0 C 1.085938 0 0.65625 -0.429688 0.65625 -1.296875 L 0.65625 -6.6875 C 0.65625 -7.550781 1.085938 -7.984375 1.953125 -7.984375 L 2.609375 -7.984375 C 3.097656 -7.984375 3.398438 -7.804688 3.515625 -7.453125 Z M 2.296875 -0.96875 L 2.953125 -0.96875 C 3.148438 -0.96875 3.289062 -1.007812 3.375 -1.09375 C 3.46875 -1.1875 3.515625 -1.34375 3.515625 -1.5625 L 3.515625 -6.421875 C 3.515625 -6.640625 3.46875 -6.789062 3.375 -6.875 C 3.289062 -6.96875 3.148438 -7.015625 2.953125 -7.015625 L 2.296875 -7.015625 C 2.078125 -7.015625 1.9375 -6.984375 1.875 -6.921875 C 1.820312 -6.867188 1.796875 -6.734375 1.796875 -6.515625 L 1.796875 -1.484375 C 1.796875 -1.265625 1.820312 -1.125 1.875 -1.0625 C 1.9375 -1 2.078125 -0.96875 2.296875 -0.96875 Z M 2.296875 -0.96875 "/></g></g></g><g fill="#000000" fill-opacity="1"><g transform="translate(80.853741, 40.469558)"><g><path d="M 7.171875 -7.96875 L 8.25 -7.96875 L 6.84375 0 L 5.109375 0 L 4.15625 -6.390625 L 3.21875 0 L 1.5 0 L 0.078125 -7.96875 L 1.171875 -7.96875 L 2.34375 -0.78125 L 3.390625 -7.96875 L 4.953125 -7.96875 L 5.96875 -0.78125 Z M 7.171875 -7.96875 "/></g></g></g><g fill="#000000" fill-opacity="1"><g transform="translate(89.188474, 40.469558)"><g><path d="M 0.703125 -9.6875 L 0.703125 -11.015625 L 1.90625 -11.015625 L 1.90625 -9.6875 Z M 1.875 0 L 0.734375 0 L 0.734375 -7.96875 L 1.875 -7.96875 Z M 1.875 0 "/></g></g></g><g fill="#000000" fill-opacity="1"><g transform="translate(91.802327, 40.469558)"><g><path d="M 4.765625 -5.609375 L 3.625 -5.609375 L 3.625 -6.5 C 3.625 -6.707031 3.59375 -6.84375 3.53125 -6.90625 C 3.476562 -6.96875 3.34375 -7 3.125 -7 L 2.296875 -7 C 2.078125 -7 1.9375 -6.96875 1.875 -6.90625 C 1.820312 -6.84375 1.796875 -6.707031 1.796875 -6.5 L 1.796875 -1.484375 C 1.796875 -1.265625 1.820312 -1.125 1.875 -1.0625 C 1.9375 -1 2.078125 -0.96875 2.296875 -0.96875 L 3.125 -0.96875 C 3.34375 -0.96875 3.476562 -1 3.53125 -1.0625 C 3.59375 -1.125 3.625 -1.265625 3.625 -1.484375 L 3.625 -2.359375 L 4.765625 -2.359375 L 4.765625 -1.296875 C 4.765625 -0.429688 4.332031 0 3.46875 0 L 1.953125 0 C 1.085938 0 0.65625 -0.429688 0.65625 -1.296875 L 0.65625 -6.671875 C 0.65625 -7.535156 1.085938 -7.96875 1.953125 -7.96875 L 3.46875 -7.96875 C 4.332031 -7.96875 4.765625 -7.535156 4.765625 -6.671875 Z M 4.765625 -5.609375 "/></g></g></g><g fill="#000000" fill-opacity="1"><g transform="translate(97.145104, 40.469558)"><g><path d="M 2.78125 -7.96875 L 3.4375 -7.96875 C 4.300781 -7.96875 4.734375 -7.535156 4.734375 -6.671875 L 4.734375 0 L 3.59375 0 L 3.59375 -6.5 C 3.59375 -6.707031 3.5625 -6.84375 3.5 -6.90625 C 3.445312 -6.96875 3.3125 -7 3.09375 -7 L 2.4375 -7 C 2.238281 -7 2.09375 -6.953125 2 -6.859375 C 1.914062 -6.773438 1.875 -6.625 1.875 -6.40625 L 1.875 0 L 0.734375 0 L 0.734375 -11 L 1.875 -11 L 1.875 -7.4375 C 2 -7.789062 2.300781 -7.96875 2.78125 -7.96875 Z M 2.78125 -7.96875 "/></g></g></g><g fill="#000000" fill-opacity="1"><g transform="translate(102.619397, 40.469558)"><g/></g></g><g fill="#000000" fill-opacity="1"><g transform="translate(104.756504, 40.469558)"><g><path d="M 1.875 0 L 0.90625 0 L 0.90625 -10.21875 L 2.140625 -10.21875 L 3.890625 -3.65625 L 5.671875 -10.21875 L 6.90625 -10.21875 L 6.90625 0 L 5.9375 0 L 5.9375 -7.734375 L 4.5 -2.21875 L 3.296875 -2.21875 L 1.875 -7.734375 Z M 1.875 0 "/></g></g></g><g fill="#000000" fill-opacity="1"><g transform="translate(112.565172, 40.469558)"><g><path d="M 3.515625 -7.96875 L 4.65625 -7.96875 L 4.65625 0 L 3.515625 0 L 3.515625 -0.546875 C 3.398438 -0.179688 3.097656 0 2.609375 0 L 1.953125 0 C 1.085938 0 0.65625 -0.429688 0.65625 -1.296875 L 0.65625 -6.671875 C 0.65625 -7.535156 1.085938 -7.96875 1.953125 -7.96875 L 2.609375 -7.96875 C 3.097656 -7.96875 3.398438 -7.789062 3.515625 -7.4375 Z M 2.296875 -0.96875 L 2.953125 -0.96875 C 3.148438 -0.96875 3.289062 -1.007812 3.375 -1.09375 C 3.46875 -1.1875 3.515625 -1.34375 3.515625 -1.5625 L 3.515625 -6.40625 C 3.515625 -6.625 3.46875 -6.773438 3.375 -6.859375 C 3.289062 -6.953125 3.148438 -7 2.953125 -7 L 2.296875 -7 C 2.078125 -7 1.9375 -6.96875 1.875 -6.90625 C 1.820312 -6.84375 1.796875 -6.707031 1.796875 -6.5 L 1.796875 -1.484375 C 1.796875 -1.265625 1.820312 -1.125 1.875 -1.0625 C 1.9375 -1 2.078125 -0.96875 2.296875 -0.96875 Z M 2.296875 -0.96875 "/></g></g></g><g fill="#000000" fill-opacity="1"><g transform="translate(117.957269, 40.469558)"><g><path d="M 5.265625 -7.96875 L 3.40625 -4.203125 L 5.265625 0 L 4.046875 0 L 2.234375 -4.203125 L 4.046875 -7.96875 Z M 0.734375 0 L 0.734375 -11 L 1.875 -11 L 1.875 0 Z M 0.734375 0 "/></g></g></g><g fill="#000000" fill-opacity="1"><g transform="translate(123.300046, 40.469558)"><g><path d="M 2.03125 -7.96875 L 3.546875 -7.96875 C 4.410156 -7.96875 4.84375 -7.535156 4.84375 -6.671875 L 4.84375 -3.59375 L 1.875 -3.59375 L 1.875 -1.484375 C 1.875 -1.265625 1.90625 -1.125 1.96875 -1.0625 C 2.039062 -1 2.179688 -0.96875 2.390625 -0.96875 L 3.15625 -0.96875 C 3.375 -0.96875 3.515625 -1 3.578125 -1.0625 C 3.640625 -1.125 3.671875 -1.265625 3.671875 -1.484375 L 3.671875 -2.203125 L 4.796875 -2.203125 L 4.796875 -1.296875 C 4.796875 -0.429688 4.363281 0 3.5 0 L 2.03125 0 C 1.164062 0 0.734375 -0.429688 0.734375 -1.296875 L 0.734375 -6.671875 C 0.734375 -7.535156 1.164062 -7.96875 2.03125 -7.96875 Z M 1.875 -4.5625 L 3.71875 -4.5625 L 3.71875 -6.5 C 3.71875 -6.707031 3.679688 -6.84375 3.609375 -6.90625 C 3.546875 -6.96875 3.410156 -7 3.203125 -7 L 2.390625 -7 C 2.179688 -7 2.039062 -6.96875 1.96875 -6.90625 C 1.90625 -6.84375 1.875 -6.707031 1.875 -6.5 Z M 1.875 -4.5625 "/></g></g></g><g fill="#000000" fill-opacity="1"><g transform="translate(128.725018, 40.469558)"><g><path d="M 3.0625 -7.96875 L 3.40625 -7.96875 L 3.40625 -6.984375 L 2.90625 -6.984375 C 2.21875 -6.984375 1.875 -6.570312 1.875 -5.75 L 1.875 0 L 0.734375 0 L 0.734375 -7.96875 L 1.875 -7.96875 L 1.875 -7.046875 C 1.957031 -7.304688 2.097656 -7.523438 2.296875 -7.703125 C 2.503906 -7.878906 2.757812 -7.96875 3.0625 -7.96875 Z M 3.0625 -7.96875 "/></g></g></g></svg>