<svg xmlns="http://www.w3.org/2000/svg" xmlns:xlink="http://www.w3.org/1999/xlink" width="195" zoomAndPan="magnify" viewBox="0 0 146.25 31.5" height="42" preserveAspectRatio="xMidYMid meet" version="1.0"><defs><g/><clipPath id="id1"><path d="M 6.867188 9.183594 L 35.539062 9.183594 L 35.539062 21.734375 L 6.867188 21.734375 Z M 6.867188 9.183594 " clip-rule="nonzero"/></clipPath></defs><g clip-path="url(#id1)"><path fill="#000000" d="M 26.550781 16.886719 C 25.277344 16.207031 24.007812 15.523438 22.734375 14.84375 L 30.371094 14.84375 C 29.371094 15.375 28.375 15.910156 27.375 16.445312 C 27.308594 16.460938 27.25 16.492188 27.207031 16.535156 C 26.988281 16.652344 26.769531 16.769531 26.550781 16.886719 Z M 22.679688 15.847656 C 21.960938 15.921875 21.3125 16.148438 20.617188 16.328125 C 19.8125 16.535156 18.96875 16.578125 18.144531 16.488281 C 18.425781 16.335938 18.714844 16.183594 19 16.03125 C 19.703125 15.652344 20.410156 15.273438 21.117188 14.898438 C 21.699219 15.207031 22.28125 15.519531 22.863281 15.832031 C 22.800781 15.835938 22.738281 15.84375 22.679688 15.847656 Z M 15.679688 16.886719 C 15.074219 16.5625 14.472656 16.242188 13.867188 15.917969 C 13.824219 15.867188 13.761719 15.832031 13.683594 15.820312 C 13.074219 15.492188 12.46875 15.167969 11.859375 14.84375 L 19.496094 14.84375 C 18.222656 15.523438 16.953125 16.207031 15.679688 16.886719 Z M 11.105469 10.152344 C 13.199219 9.574219 15.355469 10.625 16.3125 12.535156 C 16.546875 13.003906 17.246094 12.59375 17.015625 12.125 C 16.742188 11.589844 16.390625 11.109375 15.972656 10.707031 C 18.210938 9.269531 21.210938 10.144531 22.410156 12.535156 C 22.644531 13.003906 23.34375 12.59375 23.113281 12.125 C 22.835938 11.578125 22.484375 11.101562 22.074219 10.703125 C 24.308594 9.273438 27.3125 10.144531 28.511719 12.535156 C 28.742188 13.003906 29.445312 12.59375 29.210938 12.125 C 28.894531 11.496094 28.476562 10.96875 27.992188 10.535156 C 29.375 9.8125 31.039062 9.804688 32.40625 10.632812 C 33.625 11.367188 34.386719 12.636719 34.527344 14.03125 L 7.867188 14.03125 C 8.054688 12.214844 9.308594 10.644531 11.105469 10.152344 Z M 35.25 16.183594 C 34.3125 15.933594 33.296875 15.839844 32.328125 15.875 C 31.535156 15.902344 30.808594 16.089844 30.042969 16.28125 C 29.738281 16.359375 29.425781 16.410156 29.109375 16.4375 C 29.363281 16.300781 29.617188 16.167969 29.875 16.03125 C 30.613281 15.632812 31.351562 15.238281 32.089844 14.84375 L 34.960938 14.84375 C 35.175781 14.84375 35.371094 14.65625 35.367188 14.4375 C 35.339844 12.597656 34.398438 10.886719 32.816406 9.929688 C 31.113281 8.902344 28.949219 8.960938 27.277344 10.007812 C 25.535156 8.9375 23.234375 8.933594 21.429688 10.171875 C 19.664062 8.941406 17.226562 8.871094 15.332031 10.171875 C 14.074219 9.28125 12.453125 8.9375 10.890625 9.367188 C 8.613281 9.992188 7.0625 12.097656 7.03125 14.4375 C 7.027344 14.65625 7.21875 14.84375 7.4375 14.84375 L 10.140625 14.84375 C 10.878906 15.238281 11.621094 15.632812 12.359375 16.03125 C 11.40625 16.261719 10.484375 16.570312 9.46875 16.546875 C 8.761719 16.527344 8.03125 16.425781 7.359375 16.183594 C 6.867188 16.007812 6.65625 16.792969 7.144531 16.96875 C 7.828125 17.214844 8.585938 17.320312 9.308594 17.351562 C 9.960938 17.382812 10.621094 17.328125 11.257812 17.1875 C 12.019531 17.015625 12.710938 16.722656 13.492188 16.636719 C 13.960938 16.886719 14.433594 17.140625 14.902344 17.390625 C 15.089844 17.492188 15.277344 17.621094 15.472656 17.699219 C 15.765625 17.8125 15.976562 17.648438 16.222656 17.515625 C 16.472656 17.382812 16.726562 17.246094 16.976562 17.113281 C 18.058594 17.359375 19.179688 17.414062 20.273438 17.230469 C 21.050781 17.097656 21.769531 16.773438 22.550781 16.675781 C 23.1875 16.597656 23.828125 16.613281 24.464844 16.691406 C 24.902344 16.921875 25.339844 17.15625 25.777344 17.390625 C 25.960938 17.492188 26.152344 17.621094 26.347656 17.699219 C 26.636719 17.8125 26.847656 17.648438 27.097656 17.515625 C 27.261719 17.429688 27.421875 17.34375 27.585938 17.253906 C 28.304688 17.304688 29.027344 17.289062 29.742188 17.171875 C 30.5625 17.035156 31.324219 16.738281 32.164062 16.691406 C 33.117188 16.640625 34.109375 16.722656 35.035156 16.96875 C 35.542969 17.101562 35.757812 16.320312 35.25 16.183594 Z M 32.265625 20.917969 C 31.851562 20.921875 31.4375 20.917969 31.023438 20.917969 L 11.898438 20.917969 C 11.335938 20.917969 10.777344 20.917969 10.214844 20.917969 C 9.070312 20.914062 8.105469 20.222656 7.886719 19.121094 L 34.507812 19.121094 C 34.292969 20.175781 33.378906 20.910156 32.265625 20.917969 Z M 34.960938 18.308594 L 7.4375 18.308594 C 7.332031 18.308594 7.246094 18.34375 7.183594 18.398438 C 7.089844 18.460938 7.027344 18.566406 7.03125 18.714844 C 7.074219 20.382812 8.378906 21.691406 10.050781 21.730469 C 10.378906 21.738281 10.707031 21.730469 11.035156 21.730469 L 30.863281 21.730469 C 31.347656 21.730469 31.835938 21.738281 32.316406 21.730469 C 34 21.695312 35.320312 20.402344 35.367188 18.714844 C 35.371094 18.496094 35.175781 18.308594 34.960938 18.308594 " fill-opacity="1" fill-rule="nonzero"/></g><g fill="#498ad2" fill-opacity="1"><g transform="translate(40.728499, 17.338989)"><g><path d="M 8.015625 -8.953125 L 5.5625 -8.953125 L 5.5625 -11.03125 C 5.5625 -11.25 5.515625 -11.394531 5.421875 -11.46875 C 5.335938 -11.550781 5.1875 -11.59375 4.96875 -11.59375 L 3.96875 -11.59375 C 3.738281 -11.59375 3.582031 -11.550781 3.5 -11.46875 C 3.414062 -11.394531 3.375 -11.25 3.375 -11.03125 L 3.375 -2.328125 C 3.375 -2.109375 3.414062 -1.957031 3.5 -1.875 C 3.582031 -1.800781 3.738281 -1.765625 3.96875 -1.765625 L 4.96875 -1.765625 C 5.1875 -1.765625 5.335938 -1.800781 5.421875 -1.875 C 5.515625 -1.957031 5.5625 -2.109375 5.5625 -2.328125 L 5.5625 -4.375 L 8.015625 -4.375 L 8.015625 -2.078125 C 8.015625 -0.679688 7.242188 0.015625 5.703125 0.015625 L 3.21875 0.015625 C 1.675781 0.015625 0.90625 -0.679688 0.90625 -2.078125 L 0.90625 -11.28125 C 0.90625 -12.675781 1.675781 -13.375 3.21875 -13.375 L 5.703125 -13.375 C 7.242188 -13.375 8.015625 -12.675781 8.015625 -11.28125 Z M 8.015625 -8.953125 "/></g></g></g><g fill="#498ad2" fill-opacity="1"><g transform="translate(49.44166, 17.338989)"><g><path d="M 5.15625 -10.40625 L 7.5625 -10.40625 L 7.5625 0 L 5.1875 0 L 5.1875 -1.03125 C 5.019531 -0.34375 4.519531 0 3.6875 0 L 3.03125 0 C 1.59375 0 0.875 -0.695312 0.875 -2.09375 L 0.875 -10.40625 L 3.265625 -10.40625 L 3.265625 -2.4375 C 3.265625 -2.207031 3.304688 -2.050781 3.390625 -1.96875 C 3.472656 -1.894531 3.628906 -1.859375 3.859375 -1.859375 L 4.5 -1.859375 C 4.9375 -1.859375 5.15625 -2.09375 5.15625 -2.5625 Z M 5.15625 -10.40625 "/></g></g></g><g fill="#498ad2" fill-opacity="1"><g transform="translate(57.900426, 17.338989)"><g><path d="M 4.6875 -2.296875 L 4.6875 -3.75 C 4.6875 -3.976562 4.644531 -4.128906 4.5625 -4.203125 C 4.476562 -4.285156 4.316406 -4.328125 4.078125 -4.328125 L 2.921875 -4.328125 C 1.410156 -4.328125 0.65625 -5.019531 0.65625 -6.40625 L 0.65625 -8.3125 C 0.65625 -9.707031 1.425781 -10.40625 2.96875 -10.40625 L 4.640625 -10.40625 C 6.171875 -10.40625 6.9375 -9.707031 6.9375 -8.3125 L 6.9375 -7.34375 L 4.625 -7.34375 L 4.625 -8.125 C 4.625 -8.34375 4.582031 -8.488281 4.5 -8.5625 C 4.414062 -8.644531 4.257812 -8.6875 4.03125 -8.6875 L 3.609375 -8.6875 C 3.367188 -8.6875 3.203125 -8.644531 3.109375 -8.5625 C 3.023438 -8.488281 2.984375 -8.34375 2.984375 -8.125 L 2.984375 -6.59375 C 2.984375 -6.363281 3.023438 -6.207031 3.109375 -6.125 C 3.203125 -6.050781 3.367188 -6.015625 3.609375 -6.015625 L 4.75 -6.015625 C 6.28125 -6.015625 7.046875 -5.320312 7.046875 -3.9375 L 7.046875 -2.09375 C 7.046875 -0.695312 6.273438 0 4.734375 0 L 3.015625 0 C 1.472656 0 0.703125 -0.695312 0.703125 -2.09375 L 0.703125 -3.046875 L 3.046875 -3.046875 L 3.046875 -2.296875 C 3.046875 -2.066406 3.085938 -1.910156 3.171875 -1.828125 C 3.265625 -1.753906 3.421875 -1.71875 3.640625 -1.71875 L 4.078125 -1.71875 C 4.316406 -1.71875 4.476562 -1.753906 4.5625 -1.828125 C 4.644531 -1.910156 4.6875 -2.066406 4.6875 -2.296875 Z M 4.6875 -2.296875 "/></g></g></g><g fill="#498ad2" fill-opacity="1"><g transform="translate(65.574791, 17.338989)"><g><path d="M 4.96875 -8.546875 L 3.546875 -8.546875 L 3.546875 -2.5 C 3.546875 -2.269531 3.585938 -2.113281 3.671875 -2.03125 C 3.753906 -1.957031 3.914062 -1.921875 4.15625 -1.921875 L 4.9375 -1.921875 L 4.9375 0 L 3.453125 0 C 1.910156 0 1.140625 -0.695312 1.140625 -2.09375 L 1.140625 -8.546875 L 0.109375 -8.546875 L 0.109375 -10.40625 L 1.140625 -10.40625 L 1.140625 -12.28125 L 3.546875 -12.28125 L 3.546875 -10.40625 L 4.96875 -10.40625 Z M 4.96875 -8.546875 "/></g></g></g><g fill="#498ad2" fill-opacity="1"><g transform="translate(70.747574, 17.338989)"><g><path d="M 3.078125 -10.40625 L 5.46875 -10.40625 C 6.96875 -10.40625 7.71875 -9.707031 7.71875 -8.3125 L 7.71875 -2.09375 C 7.71875 -0.695312 6.96875 0 5.46875 0 L 3.078125 0 C 1.566406 0 0.8125 -0.695312 0.8125 -2.09375 L 0.8125 -8.3125 C 0.8125 -9.707031 1.566406 -10.40625 3.078125 -10.40625 Z M 5.359375 -2.375 L 5.359375 -8.03125 C 5.359375 -8.257812 5.316406 -8.410156 5.234375 -8.484375 C 5.148438 -8.566406 4.988281 -8.609375 4.75 -8.609375 L 3.78125 -8.609375 C 3.53125 -8.609375 3.363281 -8.566406 3.28125 -8.484375 C 3.195312 -8.410156 3.15625 -8.257812 3.15625 -8.03125 L 3.15625 -2.375 C 3.15625 -2.144531 3.195312 -1.988281 3.28125 -1.90625 C 3.363281 -1.832031 3.53125 -1.796875 3.78125 -1.796875 L 4.75 -1.796875 C 4.988281 -1.796875 5.148438 -1.832031 5.234375 -1.90625 C 5.316406 -1.988281 5.359375 -2.144531 5.359375 -2.375 Z M 5.359375 -2.375 "/></g></g></g><g fill="#498ad2" fill-opacity="1"><g transform="translate(79.269944, 17.338989)"><g><path d="M 9.078125 -10.40625 L 9.734375 -10.40625 C 11.171875 -10.40625 11.890625 -9.707031 11.890625 -8.3125 L 11.890625 0 L 9.5 0 L 9.5 -7.96875 C 9.5 -8.195312 9.457031 -8.347656 9.375 -8.421875 C 9.289062 -8.503906 9.132812 -8.546875 8.90625 -8.546875 L 8.265625 -8.546875 C 7.828125 -8.546875 7.609375 -8.3125 7.609375 -7.84375 L 7.609375 0 L 5.1875 0 L 5.1875 -7.96875 C 5.1875 -8.195312 5.144531 -8.347656 5.0625 -8.421875 C 4.976562 -8.503906 4.820312 -8.546875 4.59375 -8.546875 L 3.96875 -8.546875 C 3.53125 -8.546875 3.3125 -8.3125 3.3125 -7.84375 L 3.3125 0 L 0.90625 0 L 0.90625 -10.40625 L 3.28125 -10.40625 L 3.28125 -9.453125 C 3.476562 -10.085938 3.984375 -10.40625 4.796875 -10.40625 L 5.421875 -10.40625 C 6.472656 -10.40625 7.140625 -10.050781 7.421875 -9.34375 C 7.617188 -10.050781 8.171875 -10.40625 9.078125 -10.40625 Z M 9.078125 -10.40625 "/></g></g></g><g fill="#498ad2" fill-opacity="1"><g transform="translate(91.96869, 17.338989)"><g><path d="M 3.484375 -1.859375 L 7.546875 -1.859375 L 7.546875 0 L 1.015625 0 L 1.015625 -13.375 L 7.375 -13.375 L 7.375 -11.515625 L 3.484375 -11.515625 L 3.484375 -7.796875 L 6.765625 -7.796875 L 6.765625 -5.921875 L 3.484375 -5.921875 Z M 3.484375 -1.859375 "/></g></g></g><g fill="#498ad2" fill-opacity="1"><g transform="translate(99.897461, 17.338989)"><g><path d="M 5.09375 -10.40625 L 7.46875 -10.40625 L 7.46875 0 L 5.046875 0 L 5.046875 -0.890625 C 4.835938 -0.296875 4.347656 0 3.578125 0 L 2.921875 0 C 1.484375 0 0.765625 -0.695312 0.765625 -2.09375 L 0.765625 -8.3125 C 0.765625 -9.707031 1.484375 -10.40625 2.921875 -10.40625 L 3.578125 -10.40625 C 4.410156 -10.40625 4.914062 -10.066406 5.09375 -9.390625 Z M 3.75 -1.859375 L 4.390625 -1.859375 C 4.828125 -1.859375 5.046875 -2.09375 5.046875 -2.5625 L 5.046875 -7.84375 C 5.046875 -8.3125 4.828125 -8.546875 4.390625 -8.546875 L 3.75 -8.546875 C 3.519531 -8.546875 3.363281 -8.503906 3.28125 -8.421875 C 3.195312 -8.347656 3.15625 -8.195312 3.15625 -7.96875 L 3.15625 -2.4375 C 3.15625 -2.207031 3.195312 -2.050781 3.28125 -1.96875 C 3.363281 -1.894531 3.519531 -1.859375 3.75 -1.859375 Z M 3.75 -1.859375 "/></g></g></g><g fill="#498ad2" fill-opacity="1"><g transform="translate(108.250224, 17.338989)"><g><path d="M 4.96875 -8.546875 L 3.546875 -8.546875 L 3.546875 -2.5 C 3.546875 -2.269531 3.585938 -2.113281 3.671875 -2.03125 C 3.753906 -1.957031 3.914062 -1.921875 4.15625 -1.921875 L 4.9375 -1.921875 L 4.9375 0 L 3.453125 0 C 1.910156 0 1.140625 -0.695312 1.140625 -2.09375 L 1.140625 -8.546875 L 0.109375 -8.546875 L 0.109375 -10.40625 L 1.140625 -10.40625 L 1.140625 -12.28125 L 3.546875 -12.28125 L 3.546875 -10.40625 L 4.96875 -10.40625 Z M 4.96875 -8.546875 "/></g></g></g><g fill="#498ad2" fill-opacity="1"><g transform="translate(113.423007, 17.338989)"><g><path d="M 4.6875 -2.296875 L 4.6875 -3.75 C 4.6875 -3.976562 4.644531 -4.128906 4.5625 -4.203125 C 4.476562 -4.285156 4.316406 -4.328125 4.078125 -4.328125 L 2.921875 -4.328125 C 1.410156 -4.328125 0.65625 -5.019531 0.65625 -6.40625 L 0.65625 -8.3125 C 0.65625 -9.707031 1.425781 -10.40625 2.96875 -10.40625 L 4.640625 -10.40625 C 6.171875 -10.40625 6.9375 -9.707031 6.9375 -8.3125 L 6.9375 -7.34375 L 4.625 -7.34375 L 4.625 -8.125 C 4.625 -8.34375 4.582031 -8.488281 4.5 -8.5625 C 4.414062 -8.644531 4.257812 -8.6875 4.03125 -8.6875 L 3.609375 -8.6875 C 3.367188 -8.6875 3.203125 -8.644531 3.109375 -8.5625 C 3.023438 -8.488281 2.984375 -8.34375 2.984375 -8.125 L 2.984375 -6.59375 C 2.984375 -6.363281 3.023438 -6.207031 3.109375 -6.125 C 3.203125 -6.050781 3.367188 -6.015625 3.609375 -6.015625 L 4.75 -6.015625 C 6.28125 -6.015625 7.046875 -5.320312 7.046875 -3.9375 L 7.046875 -2.09375 C 7.046875 -0.695312 6.273438 0 4.734375 0 L 3.015625 0 C 1.472656 0 0.703125 -0.695312 0.703125 -2.09375 L 0.703125 -3.046875 L 3.046875 -3.046875 L 3.046875 -2.296875 C 3.046875 -2.066406 3.085938 -1.910156 3.171875 -1.828125 C 3.265625 -1.753906 3.421875 -1.71875 3.640625 -1.71875 L 4.078125 -1.71875 C 4.316406 -1.71875 4.476562 -1.753906 4.5625 -1.828125 C 4.644531 -1.910156 4.6875 -2.066406 4.6875 -2.296875 Z M 4.6875 -2.296875 "/></g></g></g><g fill="#000000" fill-opacity="1"><g transform="translate(41.663324, 26.975941)"><g><path d="M 2.46875 -1.015625 L 2.46875 -2.953125 C 2.46875 -3.109375 2.445312 -3.207031 2.40625 -3.25 C 2.363281 -3.289062 2.269531 -3.3125 2.125 -3.3125 L 1.359375 -3.3125 C 0.753906 -3.3125 0.453125 -3.609375 0.453125 -4.203125 L 0.453125 -6.171875 C 0.453125 -6.765625 0.753906 -7.0625 1.359375 -7.0625 L 2.34375 -7.0625 C 2.945312 -7.0625 3.25 -6.765625 3.25 -6.171875 L 3.25 -5.078125 L 2.46875 -5.078125 L 2.46875 -6.046875 C 2.46875 -6.191406 2.445312 -6.285156 2.40625 -6.328125 C 2.363281 -6.367188 2.265625 -6.390625 2.109375 -6.390625 L 1.59375 -6.390625 C 1.4375 -6.390625 1.335938 -6.367188 1.296875 -6.328125 C 1.253906 -6.285156 1.234375 -6.191406 1.234375 -6.046875 L 1.234375 -4.328125 C 1.234375 -4.179688 1.253906 -4.082031 1.296875 -4.03125 C 1.335938 -3.988281 1.4375 -3.96875 1.59375 -3.96875 L 2.359375 -3.96875 C 2.960938 -3.96875 3.265625 -3.671875 3.265625 -3.078125 L 3.265625 -0.890625 C 3.265625 -0.296875 2.960938 0 2.359375 0 L 1.375 0 C 0.78125 0 0.484375 -0.296875 0.484375 -0.890625 L 0.484375 -1.984375 L 1.265625 -1.984375 L 1.265625 -1.015625 C 1.265625 -0.867188 1.285156 -0.773438 1.328125 -0.734375 C 1.367188 -0.691406 1.460938 -0.671875 1.609375 -0.671875 L 2.125 -0.671875 C 2.269531 -0.671875 2.363281 -0.691406 2.40625 -0.734375 C 2.445312 -0.773438 2.46875 -0.867188 2.46875 -1.015625 Z M 2.46875 -1.015625 "/></g></g></g><g fill="#000000" fill-opacity="1"><g transform="translate(45.375097, 26.975941)"><g><path d="M 2.4375 -5.515625 L 3.21875 -5.515625 L 3.21875 0 L 2.4375 0 L 2.4375 -0.375 C 2.351562 -0.125 2.144531 0 1.8125 0 L 1.359375 0 C 0.753906 0 0.453125 -0.296875 0.453125 -0.890625 L 0.453125 -4.609375 C 0.453125 -5.210938 0.753906 -5.515625 1.359375 -5.515625 L 1.8125 -5.515625 C 2.144531 -5.515625 2.351562 -5.390625 2.4375 -5.140625 Z M 1.59375 -0.671875 L 2.046875 -0.671875 C 2.179688 -0.671875 2.28125 -0.703125 2.34375 -0.765625 C 2.40625 -0.828125 2.4375 -0.929688 2.4375 -1.078125 L 2.4375 -4.4375 C 2.4375 -4.582031 2.40625 -4.6875 2.34375 -4.75 C 2.28125 -4.8125 2.179688 -4.84375 2.046875 -4.84375 L 1.59375 -4.84375 C 1.4375 -4.84375 1.335938 -4.816406 1.296875 -4.765625 C 1.253906 -4.722656 1.234375 -4.628906 1.234375 -4.484375 L 1.234375 -1.015625 C 1.234375 -0.867188 1.253906 -0.773438 1.296875 -0.734375 C 1.335938 -0.691406 1.4375 -0.671875 1.59375 -0.671875 Z M 1.59375 -0.671875 "/></g></g></g><g fill="#000000" fill-opacity="1"><g transform="translate(49.098226, 26.975941)"><g><path d="M 1.921875 -5.515625 L 2.375 -5.515625 C 2.96875 -5.515625 3.265625 -5.210938 3.265625 -4.609375 L 3.265625 0 L 2.484375 0 L 2.484375 -4.484375 C 2.484375 -4.628906 2.460938 -4.722656 2.421875 -4.765625 C 2.378906 -4.816406 2.285156 -4.84375 2.140625 -4.84375 L 1.6875 -4.84375 C 1.550781 -4.84375 1.453125 -4.8125 1.390625 -4.75 C 1.328125 -4.6875 1.296875 -4.582031 1.296875 -4.4375 L 1.296875 0 L 0.515625 0 L 0.515625 -5.515625 L 1.296875 -5.515625 L 1.296875 -5.140625 C 1.378906 -5.390625 1.585938 -5.515625 1.921875 -5.515625 Z M 1.921875 -5.515625 "/></g></g></g><g fill="#000000" fill-opacity="1"><g transform="translate(52.87811, 26.975941)"><g><path d="M 2.4375 -7.59375 L 3.21875 -7.59375 L 3.21875 0 L 2.4375 0 L 2.4375 -0.375 C 2.351562 -0.125 2.144531 0 1.8125 0 L 1.359375 0 C 0.753906 0 0.453125 -0.296875 0.453125 -0.890625 L 0.453125 -4.625 C 0.453125 -5.21875 0.753906 -5.515625 1.359375 -5.515625 L 1.8125 -5.515625 C 2.144531 -5.515625 2.351562 -5.390625 2.4375 -5.140625 Z M 1.59375 -0.671875 L 2.046875 -0.671875 C 2.179688 -0.671875 2.28125 -0.703125 2.34375 -0.765625 C 2.40625 -0.828125 2.4375 -0.929688 2.4375 -1.078125 L 2.4375 -4.4375 C 2.4375 -4.59375 2.40625 -4.695312 2.34375 -4.75 C 2.28125 -4.8125 2.179688 -4.84375 2.046875 -4.84375 L 1.59375 -4.84375 C 1.4375 -4.84375 1.335938 -4.820312 1.296875 -4.78125 C 1.253906 -4.738281 1.234375 -4.644531 1.234375 -4.5 L 1.234375 -1.015625 C 1.234375 -0.867188 1.253906 -0.773438 1.296875 -0.734375 C 1.335938 -0.691406 1.4375 -0.671875 1.59375 -0.671875 Z M 1.59375 -0.671875 "/></g></g></g><g fill="#000000" fill-opacity="1"><g transform="translate(56.601239, 26.975941)"><g><path d="M 4.953125 -5.515625 L 5.703125 -5.515625 L 4.71875 0 L 3.53125 0 L 2.875 -4.421875 L 2.21875 0 L 1.03125 0 L 0.0625 -5.515625 L 0.8125 -5.515625 L 1.625 -0.546875 L 2.34375 -5.515625 L 3.421875 -5.515625 L 4.125 -0.546875 Z M 4.953125 -5.515625 "/></g></g></g><g fill="#000000" fill-opacity="1"><g transform="translate(62.356196, 26.975941)"><g><path d="M 0.484375 -6.6875 L 0.484375 -7.609375 L 1.3125 -7.609375 L 1.3125 -6.6875 Z M 1.296875 0 L 0.515625 0 L 0.515625 -5.515625 L 1.296875 -5.515625 Z M 1.296875 0 "/></g></g></g><g fill="#000000" fill-opacity="1"><g transform="translate(64.161006, 26.975941)"><g><path d="M 3.296875 -3.875 L 2.515625 -3.875 L 2.515625 -4.484375 C 2.515625 -4.628906 2.492188 -4.722656 2.453125 -4.765625 C 2.410156 -4.816406 2.3125 -4.84375 2.15625 -4.84375 L 1.59375 -4.84375 C 1.4375 -4.84375 1.335938 -4.816406 1.296875 -4.765625 C 1.253906 -4.722656 1.234375 -4.628906 1.234375 -4.484375 L 1.234375 -1.015625 C 1.234375 -0.867188 1.253906 -0.773438 1.296875 -0.734375 C 1.335938 -0.691406 1.4375 -0.671875 1.59375 -0.671875 L 2.15625 -0.671875 C 2.3125 -0.671875 2.410156 -0.691406 2.453125 -0.734375 C 2.492188 -0.773438 2.515625 -0.867188 2.515625 -1.015625 L 2.515625 -1.640625 L 3.296875 -1.640625 L 3.296875 -0.890625 C 3.296875 -0.296875 2.992188 0 2.390625 0 L 1.359375 0 C 0.753906 0 0.453125 -0.296875 0.453125 -0.890625 L 0.453125 -4.609375 C 0.453125 -5.210938 0.753906 -5.515625 1.359375 -5.515625 L 2.390625 -5.515625 C 2.992188 -5.515625 3.296875 -5.210938 3.296875 -4.609375 Z M 3.296875 -3.875 "/></g></g></g><g fill="#000000" fill-opacity="1"><g transform="translate(67.850081, 26.975941)"><g><path d="M 1.921875 -5.515625 L 2.375 -5.515625 C 2.96875 -5.515625 3.265625 -5.210938 3.265625 -4.609375 L 3.265625 0 L 2.484375 0 L 2.484375 -4.484375 C 2.484375 -4.628906 2.460938 -4.722656 2.421875 -4.765625 C 2.378906 -4.816406 2.285156 -4.84375 2.140625 -4.84375 L 1.6875 -4.84375 C 1.550781 -4.84375 1.453125 -4.8125 1.390625 -4.75 C 1.328125 -4.6875 1.296875 -4.582031 1.296875 -4.4375 L 1.296875 0 L 0.515625 0 L 0.515625 -7.59375 L 1.296875 -7.59375 L 1.296875 -5.140625 C 1.378906 -5.390625 1.585938 -5.515625 1.921875 -5.515625 Z M 1.921875 -5.515625 "/></g></g></g><g fill="#000000" fill-opacity="1"><g transform="translate(71.629964, 26.975941)"><g/></g></g><g fill="#000000" fill-opacity="1"><g transform="translate(73.105591, 26.975941)"><g><path d="M 1.296875 0 L 0.625 0 L 0.625 -7.0625 L 1.484375 -7.0625 L 2.6875 -2.515625 L 3.921875 -7.0625 L 4.765625 -7.0625 L 4.765625 0 L 4.09375 0 L 4.09375 -5.34375 L 3.109375 -1.53125 L 2.28125 -1.53125 L 1.296875 -5.34375 Z M 1.296875 0 "/></g></g></g><g fill="#000000" fill-opacity="1"><g transform="translate(78.497311, 26.975941)"><g><path d="M 2.4375 -5.515625 L 3.21875 -5.515625 L 3.21875 0 L 2.4375 0 L 2.4375 -0.375 C 2.351562 -0.125 2.144531 0 1.8125 0 L 1.359375 0 C 0.753906 0 0.453125 -0.296875 0.453125 -0.890625 L 0.453125 -4.609375 C 0.453125 -5.210938 0.753906 -5.515625 1.359375 -5.515625 L 1.8125 -5.515625 C 2.144531 -5.515625 2.351562 -5.390625 2.4375 -5.140625 Z M 1.59375 -0.671875 L 2.046875 -0.671875 C 2.179688 -0.671875 2.28125 -0.703125 2.34375 -0.765625 C 2.40625 -0.828125 2.4375 -0.929688 2.4375 -1.078125 L 2.4375 -4.4375 C 2.4375 -4.582031 2.40625 -4.6875 2.34375 -4.75 C 2.28125 -4.8125 2.179688 -4.84375 2.046875 -4.84375 L 1.59375 -4.84375 C 1.4375 -4.84375 1.335938 -4.816406 1.296875 -4.765625 C 1.253906 -4.722656 1.234375 -4.628906 1.234375 -4.484375 L 1.234375 -1.015625 C 1.234375 -0.867188 1.253906 -0.773438 1.296875 -0.734375 C 1.335938 -0.691406 1.4375 -0.671875 1.59375 -0.671875 Z M 1.59375 -0.671875 "/></g></g></g><g fill="#000000" fill-opacity="1"><g transform="translate(82.22044, 26.975941)"><g><path d="M 3.640625 -5.515625 L 2.34375 -2.90625 L 3.640625 0 L 2.796875 0 L 1.546875 -2.90625 L 2.796875 -5.515625 Z M 0.515625 0 L 0.515625 -7.59375 L 1.296875 -7.59375 L 1.296875 0 Z M 0.515625 0 "/></g></g></g><g fill="#000000" fill-opacity="1"><g transform="translate(85.909514, 26.975941)"><g><path d="M 1.40625 -5.515625 L 2.453125 -5.515625 C 3.046875 -5.515625 3.34375 -5.210938 3.34375 -4.609375 L 3.34375 -2.484375 L 1.296875 -2.484375 L 1.296875 -1.015625 C 1.296875 -0.867188 1.316406 -0.773438 1.359375 -0.734375 C 1.410156 -0.691406 1.503906 -0.671875 1.640625 -0.671875 L 2.1875 -0.671875 C 2.332031 -0.671875 2.425781 -0.691406 2.46875 -0.734375 C 2.507812 -0.773438 2.53125 -0.867188 2.53125 -1.015625 L 2.53125 -1.515625 L 3.3125 -1.515625 L 3.3125 -0.890625 C 3.3125 -0.296875 3.015625 0 2.421875 0 L 1.40625 0 C 0.8125 0 0.515625 -0.296875 0.515625 -0.890625 L 0.515625 -4.609375 C 0.515625 -5.210938 0.8125 -5.515625 1.40625 -5.515625 Z M 1.296875 -3.15625 L 2.5625 -3.15625 L 2.5625 -4.484375 C 2.5625 -4.628906 2.539062 -4.722656 2.5 -4.765625 C 2.457031 -4.816406 2.363281 -4.84375 2.21875 -4.84375 L 1.640625 -4.84375 C 1.503906 -4.84375 1.410156 -4.816406 1.359375 -4.765625 C 1.316406 -4.722656 1.296875 -4.628906 1.296875 -4.484375 Z M 1.296875 -3.15625 "/></g></g></g><g fill="#000000" fill-opacity="1"><g transform="translate(89.655343, 26.975941)"><g><path d="M 2.109375 -5.515625 L 2.34375 -5.515625 L 2.34375 -4.828125 L 2.015625 -4.828125 C 1.535156 -4.828125 1.296875 -4.539062 1.296875 -3.96875 L 1.296875 0 L 0.515625 0 L 0.515625 -5.515625 L 1.296875 -5.515625 L 1.296875 -4.875 C 1.359375 -5.050781 1.457031 -5.203125 1.59375 -5.328125 C 1.738281 -5.453125 1.910156 -5.515625 2.109375 -5.515625 Z M 2.109375 -5.515625 "/></g></g></g></svg>