<svg xmlns="http://www.w3.org/2000/svg" xmlns:xlink="http://www.w3.org/1999/xlink" width="150" zoomAndPan="magnify" viewBox="0 0 112.5 112.499997" height="150" preserveAspectRatio="xMidYMid meet" version="1.0"><defs><clipPath id="id1"><path d="M 7.386719 7.386719 L 104.886719 7.386719 L 104.886719 104.886719 L 7.386719 104.886719 Z M 7.386719 7.386719 " clip-rule="nonzero"/></clipPath></defs><g clip-path="url(#id1)"><path fill="#498ad2" d="M 7.386719 56.136719 C 7.386719 29.21875 29.21875 7.386719 56.136719 7.386719 C 83.058594 7.386719 104.886719 29.21875 104.886719 56.136719 C 104.886719 83.058594 83.058594 104.886719 56.136719 104.886719 C 29.21875 104.886719 7.386719 83.058594 7.386719 56.136719 Z M 7.386719 56.136719 " fill-opacity="1" fill-rule="nonzero"/></g><path fill="#f7f7f7" d="M 86.144531 40.714844 C 85.652344 39.75 83.253906 37.570312 79.207031 39.554688 C 75.160156 41.539062 77.125 45.902344 77.125 45.902344 C 78.636719 48.984375 79.480469 52.464844 79.480469 56.117188 C 79.480469 69.007812 69.027344 79.460938 56.136719 79.460938 C 43.25 79.460938 32.792969 69.007812 32.792969 56.117188 C 32.792969 44.054688 41.953125 34.128906 53.703125 32.894531 L 53.703125 38.945312 C 53.703125 38.945312 53.683594 39.296875 54.054688 39.535156 C 54.429688 39.769531 54.800781 39.535156 54.800781 39.535156 L 74.175781 28.117188 C 74.175781 28.117188 74.609375 27.882812 74.609375 27.449219 C 74.609375 27.078125 74.175781 26.820312 74.175781 26.820312 L 54.878906 15.464844 C 54.878906 15.464844 54.449219 15.148438 54.054688 15.308594 C 53.664062 15.464844 53.722656 15.996094 53.722656 15.996094 L 53.722656 22.480469 C 36.234375 23.734375 22.441406 38.316406 22.441406 56.117188 C 22.441406 74.746094 37.550781 89.855469 56.175781 89.855469 C 74.804688 89.855469 89.914062 74.746094 89.914062 56.117188 C 89.875 50.578125 88.519531 45.332031 86.144531 40.714844 Z M 86.144531 40.714844 " fill-opacity="1" fill-rule="nonzero"/></svg>