<svg xmlns="http://www.w3.org/2000/svg" xmlns:xlink="http://www.w3.org/1999/xlink" width="150" zoomAndPan="magnify" viewBox="0 0 112.5 112.499997" height="150" preserveAspectRatio="xMidYMid meet" version="1.0"><path fill="#f4900c" d="M 106.835938 62.46875 L 5.21875 60.925781 L 5.269531 68.785156 C 5.320312 70.5625 6.328125 72.34375 8.496094 73.671875 L 29.140625 86.335938 L 49.785156 98.996094 C 54.347656 101.796875 62.175781 101.535156 66.300781 98.996094 C 70.433594 96.464844 68.367188 95.203125 72.496094 92.664062 C 76.621094 90.136719 78.683594 91.402344 82.816406 88.875 C 86.953125 86.332031 103.46875 76.214844 103.46875 76.214844 C 105.742188 74.816406 106.878906 72.988281 106.882812 71.15625 Z M 106.835938 62.46875 " fill-opacity="1" fill-rule="nonzero"/><path fill="#ffac33" d="M 103.46875 57.09375 C 103.46875 57.09375 12.628906 52.03125 8.496094 54.5625 C 4.367188 57.09375 3.9375 61.890625 8.496094 64.691406 L 49.785156 90.019531 C 54.347656 92.816406 62.175781 92.558594 66.300781 90.019531 C 70.433594 87.488281 68.367188 86.222656 72.496094 83.6875 C 76.621094 81.160156 78.683594 82.421875 82.816406 79.894531 C 86.953125 77.355469 103.464844 67.230469 103.464844 67.230469 C 108.023438 64.429688 108.027344 59.890625 103.46875 57.09375 Z M 103.46875 57.09375 " fill-opacity="1" fill-rule="nonzero"/><path fill="#ffd983" d="M 32.78125 74.828125 L 53.914062 87.488281 C 53.914062 87.488281 58.140625 90.019531 62.367188 87.488281 C 65.941406 85.34375 68.703125 81.160156 68.703125 81.160156 Z M 32.78125 74.828125 " fill-opacity="1" fill-rule="nonzero"/><path fill="#77b255" d="M 103.066406 56.625 C 97.265625 48.871094 23.285156 43.410156 11.679688 54.328125 C 9.335938 56.535156 4.910156 60.976562 9.625 67.625 C 11.679688 71.105469 15.949219 73.371094 16.515625 72.296875 C 17.839844 69.773438 20.480469 67.570312 24.445312 67.78125 C 24.21875 68.316406 26.359375 77.386719 26.117188 77.589844 C 23.355469 79.945312 29.097656 88.128906 35.828125 83.769531 C 37.503906 87.089844 47.652344 95.28125 54.65625 84.074219 C 56.046875 86.601562 70.675781 90.449219 74.734375 78.785156 C 74.703125 78.988281 74.710938 79.15625 74.660156 79.375 C 74.390625 80.421875 76.816406 81.328125 79.285156 80.460938 C 83.4375 79.003906 89.433594 75.390625 90.492188 71.421875 C 93.453125 70.902344 95.675781 71.726562 97.386719 73.992188 C 98.230469 75.113281 101.132812 75.382812 102.375 73.917969 C 104.5625 71.34375 108.152344 63.425781 103.066406 56.625 Z M 103.066406 56.625 " fill-opacity="1" fill-rule="nonzero"/><path fill="#ffcc4d" d="M 94.878906 76.023438 C 94.878906 77.605469 92.203125 78.894531 88.902344 78.894531 L 23.148438 78.894531 C 19.851562 78.894531 17.171875 77.605469 17.171875 76.023438 L 17.171875 56.402344 L 94.878906 56.402344 Z M 94.878906 76.023438 " fill-opacity="1" fill-rule="nonzero"/><path fill="#be1931" d="M 101.789062 60.886719 C 101.789062 69.175781 88.082031 75.898438 71.175781 75.898438 C 54.265625 75.898438 40.5625 69.175781 40.5625 60.886719 C 40.5625 52.589844 54.265625 45.871094 71.175781 45.871094 C 88.082031 45.871094 101.789062 52.59375 101.789062 60.886719 Z M 101.789062 60.886719 " fill-opacity="1" fill-rule="nonzero"/><path fill="#f4900c" d="M 106.835938 44.5 L 5.21875 42.953125 L 5.21875 50.816406 L 5.269531 50.816406 C 5.320312 52.589844 6.328125 54.375 8.496094 55.703125 L 29.140625 68.367188 L 49.785156 81.027344 C 54.347656 83.828125 62.175781 83.566406 66.300781 81.027344 C 70.433594 78.496094 68.367188 77.230469 72.496094 74.695312 C 76.621094 72.167969 78.683594 73.429688 82.816406 70.902344 C 86.953125 68.363281 103.46875 58.242188 103.46875 58.242188 C 105.742188 56.847656 106.878906 55.019531 106.882812 53.183594 L 106.882812 53.167969 Z M 106.835938 44.5 " fill-opacity="1" fill-rule="nonzero"/><path fill="#ffac33" d="M 103.46875 39.121094 L 62.175781 13.800781 C 57.617188 11.003906 50.222656 11.003906 45.660156 13.800781 L 25.011719 26.464844 C 20.886719 28.996094 22.945312 30.261719 18.820312 32.792969 C 14.691406 35.324219 12.628906 34.058594 8.496094 36.59375 C 4.367188 39.121094 3.9375 43.921875 8.496094 46.722656 L 49.785156 72.042969 C 54.347656 74.84375 62.175781 74.585938 66.300781 72.042969 C 70.433594 69.511719 68.367188 68.25 72.496094 65.714844 C 76.621094 63.183594 78.683594 64.449219 82.816406 61.921875 C 86.953125 59.382812 103.464844 49.257812 103.464844 49.257812 C 108.023438 46.460938 108.027344 41.921875 103.46875 39.121094 Z M 103.46875 39.121094 " fill-opacity="1" fill-rule="nonzero"/><path fill="#ffd983" d="M 100.410156 41.660156 L 58.140625 16.335938 C 58.140625 16.335938 53.636719 13.96875 49.683594 16.335938 L 28.875 28.800781 C 25.300781 30.945312 25.789062 33.183594 22.210938 35.324219 C 18.636719 37.46875 15.222656 36.980469 11.644531 39.121094 C 7.417969 41.660156 11.644531 44.195312 11.644531 44.195312 L 53.910156 69.515625 C 53.910156 69.515625 58.136719 72.042969 62.363281 69.515625 C 65.941406 67.371094 65.128906 65.332031 68.703125 63.183594 C 72.28125 61.039062 76.015625 61.332031 79.59375 59.191406 C 83.171875 57.050781 100.402344 46.722656 100.402344 46.722656 C 100.402344 46.722656 104.359375 44.023438 100.410156 41.660156 Z M 100.410156 41.660156 " fill-opacity="1" fill-rule="nonzero"/></svg>